<svg width="63" height="15" viewBox="0 0 63 15" fill="none" xmlns="http://www.w3.org/2000/svg">
<path d="M0.892 12L4.636 3.6H6.556L10.312 12H8.272L5.2 4.584H5.968L2.884 12H0.892ZM2.764 10.2L3.28 8.724H7.6L8.128 10.2H2.764ZM11.1835 12V3.6H12.7915L17.7475 9.648H16.9675V3.6H18.8875V12H17.2915L12.3235 5.952H13.1035V12H11.1835ZM24.9309 12.144C24.2669 12.144 23.6549 12.04 23.0949 11.832C22.5429 11.616 22.0589 11.312 21.6429 10.92C21.2349 10.528 20.9149 10.068 20.6829 9.54C20.4589 9.012 20.3469 8.432 20.3469 7.8C20.3469 7.168 20.4589 6.588 20.6829 6.06C20.9149 5.532 21.2389 5.072 21.6549 4.68C22.0709 4.288 22.5589 3.988 23.1189 3.78C23.6789 3.564 24.2949 3.456 24.9669 3.456C25.7109 3.456 26.3789 3.58 26.9709 3.828C27.5709 4.076 28.0749 4.436 28.4829 4.908L27.2349 6.06C26.9309 5.74 26.5989 5.504 26.2389 5.352C25.8789 5.192 25.4869 5.112 25.0629 5.112C24.6549 5.112 24.2829 5.176 23.9469 5.304C23.6109 5.432 23.3189 5.616 23.0709 5.856C22.8309 6.096 22.6429 6.38 22.5069 6.708C22.3789 7.036 22.3149 7.4 22.3149 7.8C22.3149 8.192 22.3789 8.552 22.5069 8.88C22.6429 9.208 22.8309 9.496 23.0709 9.744C23.3189 9.984 23.6069 10.168 23.9349 10.296C24.2709 10.424 24.6389 10.488 25.0389 10.488C25.4229 10.488 25.7949 10.428 26.1549 10.308C26.5229 10.18 26.8789 9.968 27.2229 9.672L28.3269 11.076C27.8709 11.42 27.3389 11.684 26.7309 11.868C26.1309 12.052 25.5309 12.144 24.9309 12.144ZM26.5509 10.824V7.668H28.3269V11.076L26.5509 10.824ZM31.8727 10.08L31.7647 7.836L35.7847 3.6H37.9447L34.3207 7.5L33.2407 8.652L31.8727 10.08ZM30.1327 12V3.6H32.0647V12H30.1327ZM35.8807 12L32.8927 8.34L34.1647 6.96L38.1487 12H35.8807ZM44.154 12V5.184H41.466V3.6H48.786V5.184H46.098V12H44.154ZM49.8319 12V3.6H51.7759V12H49.8319ZM53.7694 12V3.6H55.3774L60.3334 9.648H59.5534V3.6H61.4734V12H59.8774L54.9094 5.952H55.6894V12H53.7694Z" fill="#2545D4"/>
<path d="M42.8 5.66667C42.8 6.12779 42.5972 6.77491 42.2705 7.50721C41.947 8.23237 41.514 9.01553 41.0786 9.73966C40.6436 10.4631 40.2082 11.1242 39.8815 11.6046C39.7255 11.834 39.5943 12.022 39.5 12.1557C39.4057 12.022 39.2745 11.834 39.1185 11.6046C38.7918 11.1242 38.3564 10.4631 37.9214 9.73966C37.486 9.01553 37.053 8.23237 36.7295 7.50721C36.4028 6.77491 36.2 6.12779 36.2 5.66667C36.2 3.74321 37.6861 2.2 39.5 2.2C41.3139 2.2 42.8 3.74321 42.8 5.66667Z" fill="white" stroke="#2545D4" stroke-width="0.4"/>
<circle cx="39.5" cy="5.5" r="1.4" fill="#2545D4" stroke="#2545D4" stroke-width="0.2"/>
</svg>
