<svg width="70" height="21" viewBox="0 0 70 21" fill="none" xmlns="http://www.w3.org/2000/svg">
<g filter="url(#filter0_d_449_36)">
<path d="M4.892 12L8.636 3.6H10.556L14.312 12H12.272L9.2 4.584H9.968L6.884 12H4.892ZM6.764 10.2L7.28 8.724H11.6L12.128 10.2H6.764ZM15.1835 12V3.6H16.7915L21.7475 9.648H20.9675V3.6H22.8875V12H21.2915L16.3235 5.952H17.1035V12H15.1835ZM28.9309 12.144C28.2669 12.144 27.6549 12.04 27.0949 11.832C26.5429 11.616 26.0589 11.312 25.6429 10.92C25.2349 10.528 24.9149 10.068 24.6829 9.54C24.4589 9.012 24.3469 8.432 24.3469 7.8C24.3469 7.168 24.4589 6.588 24.6829 6.06C24.9149 5.532 25.2389 5.072 25.6549 4.68C26.0709 4.288 26.5589 3.988 27.1189 3.78C27.6789 3.564 28.2949 3.456 28.9669 3.456C29.7109 3.456 30.3789 3.58 30.9709 3.828C31.5709 4.076 32.0749 4.436 32.4829 4.908L31.2349 6.06C30.9309 5.74 30.5989 5.504 30.2389 5.352C29.8789 5.192 29.4869 5.112 29.0629 5.112C28.6549 5.112 28.2829 5.176 27.9469 5.304C27.6109 5.432 27.3189 5.616 27.0709 5.856C26.8309 6.096 26.6429 6.38 26.5069 6.708C26.3789 7.036 26.3149 7.4 26.3149 7.8C26.3149 8.192 26.3789 8.552 26.5069 8.88C26.6429 9.208 26.8309 9.496 27.0709 9.744C27.3189 9.984 27.6069 10.168 27.9349 10.296C28.2709 10.424 28.6389 10.488 29.0389 10.488C29.4229 10.488 29.7949 10.428 30.1549 10.308C30.5229 10.18 30.8789 9.968 31.2229 9.672L32.3269 11.076C31.8709 11.42 31.3389 11.684 30.7309 11.868C30.1309 12.052 29.5309 12.144 28.9309 12.144ZM30.5509 10.824V7.668H32.3269V11.076L30.5509 10.824ZM35.8727 10.08L35.7647 7.836L39.7847 3.6H41.9447L38.3207 7.5L37.2407 8.652L35.8727 10.08ZM34.1327 12V3.6H36.0647V12H34.1327ZM39.8807 12L36.8927 8.34L38.1647 6.96L42.1487 12H39.8807ZM48.154 12V5.184H45.466V3.6H52.786V5.184H50.098V12H48.154ZM53.8319 12V3.6H55.7759V12H53.8319ZM57.7694 12V3.6H59.3774L64.3334 9.648H63.5534V3.6H65.4734V12H63.8774L58.9094 5.952H59.6894V12H57.7694Z" fill="#2545D4"/>
<path d="M47 5.66667C47 7.69171 43.5 12.5 43.5 12.5C43.5 12.5 40 7.69171 40 5.66667C40 3.64162 41.567 2 43.5 2C45.433 2 47 3.64162 47 5.66667Z" fill="#E65100"/>
<circle cx="43.5" cy="5.5" r="1.5" fill="white"/>
</g>
<defs>
<filter id="filter0_d_449_36" x="0.89209" y="2" width="68.5813" height="18.5" filterUnits="userSpaceOnUse" color-interpolation-filters="sRGB">
<feFlood flood-opacity="0" result="BackgroundImageFix"/>
<feColorMatrix in="SourceAlpha" type="matrix" values="0 0 0 0 0 0 0 0 0 0 0 0 0 0 0 0 0 0 127 0" result="hardAlpha"/>
<feOffset dy="4"/>
<feGaussianBlur stdDeviation="2"/>
<feComposite in2="hardAlpha" operator="out"/>
<feColorMatrix type="matrix" values="0 0 0 0 0 0 0 0 0 0 0 0 0 0 0 0 0 0 0.25 0"/>
<feBlend mode="normal" in2="BackgroundImageFix" result="effect1_dropShadow_449_36"/>
<feBlend mode="normal" in="SourceGraphic" in2="effect1_dropShadow_449_36" result="shape"/>
</filter>
</defs>
</svg>
