<svg width="360" height="640" viewBox="0 0 360 640" fill="none" xmlns="http://www.w3.org/2000/svg">
<g clip-path="url(#clip0_447_24)">
<rect width="360" height="640" fill="#2545D4"/>
<rect x="-17.8494" y="-225" width="305.186" height="413.015" transform="rotate(38.6851 -17.8494 -225)" fill="#5873E6"/>
<rect x="386.151" y="366" width="305.186" height="413.015" transform="rotate(38.6851 386.151 366)" fill="#5873E6"/>
<g filter="url(#filter0_i_447_24)">
<path d="M100 332.411L109.888 310.226H114.959L124.879 332.411H119.491L111.378 312.825H113.406L105.261 332.411H100ZM104.944 327.657L106.307 323.759H117.716L119.111 327.657H104.944ZM127.181 332.411V310.226H131.427L144.517 326.199H142.457V310.226H147.527V332.411H143.312L130.191 316.438H132.251V332.411H127.181ZM163.489 332.791C161.735 332.791 160.119 332.517 158.64 331.967C157.182 331.397 155.903 330.594 154.805 329.559C153.727 328.523 152.882 327.308 152.269 325.914C151.678 324.52 151.382 322.988 151.382 321.319C151.382 319.649 151.678 318.118 152.269 316.723C152.882 315.329 153.738 314.114 154.836 313.078C155.935 312.043 157.224 311.251 158.703 310.701C160.182 310.131 161.809 309.846 163.584 309.846C165.549 309.846 167.313 310.173 168.876 310.828C170.461 311.483 171.792 312.434 172.87 313.681L169.574 316.723C168.771 315.878 167.894 315.255 166.943 314.853C165.992 314.431 164.957 314.219 163.837 314.219C162.76 314.219 161.777 314.388 160.89 314.726C160.002 315.064 159.231 315.55 158.576 316.184C157.942 316.818 157.446 317.568 157.087 318.434C156.749 319.301 156.579 320.262 156.579 321.319C156.579 322.354 156.749 323.305 157.087 324.171C157.446 325.037 157.942 325.798 158.576 326.453C159.231 327.087 159.992 327.573 160.858 327.911C161.745 328.249 162.717 328.418 163.774 328.418C164.788 328.418 165.77 328.259 166.721 327.942C167.693 327.604 168.633 327.044 169.542 326.263L172.458 329.971C171.253 330.879 169.848 331.576 168.242 332.062C166.658 332.548 165.073 332.791 163.489 332.791ZM167.767 329.305V320.97H172.458V329.971L167.767 329.305ZM181.822 327.34L181.537 321.414L192.154 310.226H197.859L188.288 320.526L185.435 323.569L181.822 327.34ZM177.227 332.411V310.226H182.329V332.411H177.227ZM192.408 332.411L184.516 322.745L187.876 319.1L198.398 332.411H192.408ZM214.258 332.411V314.409H207.159V310.226H226.492V314.409H219.392V332.411H214.258ZM229.254 332.411V310.226H234.388V332.411H229.254ZM239.653 332.411V310.226H243.9L256.989 326.199H254.929V310.226H260V332.411H255.785L242.664 316.438H244.724V332.411H239.653Z" fill="white"/>
<path d="M211.21 315.684C211.21 321.032 201.966 333.731 201.966 333.731C201.966 333.731 192.723 321.032 192.723 315.684C192.723 310.336 196.861 306 201.966 306C207.072 306 211.21 310.336 211.21 315.684Z" fill="#5873E6"/>
<path d="M201.966 319.205C204.154 319.205 205.928 317.432 205.928 315.244C205.928 313.056 204.154 311.282 201.966 311.282C199.779 311.282 198.005 313.056 198.005 315.244C198.005 317.432 199.779 319.205 201.966 319.205Z" fill="white"/>
</g>
</g>
<defs>
<filter id="filter0_i_447_24" x="100" y="306" width="160" height="31.7314" filterUnits="userSpaceOnUse" color-interpolation-filters="sRGB">
<feFlood flood-opacity="0" result="BackgroundImageFix"/>
<feBlend mode="normal" in="SourceGraphic" in2="BackgroundImageFix" result="shape"/>
<feColorMatrix in="SourceAlpha" type="matrix" values="0 0 0 0 0 0 0 0 0 0 0 0 0 0 0 0 0 0 127 0" result="hardAlpha"/>
<feOffset dy="4"/>
<feGaussianBlur stdDeviation="2"/>
<feComposite in2="hardAlpha" operator="arithmetic" k2="-1" k3="1"/>
<feColorMatrix type="matrix" values="0 0 0 0 0 0 0 0 0 0 0 0 0 0 0 0 0 0 0.25 0"/>
<feBlend mode="normal" in2="shape" result="effect1_innerShadow_447_24"/>
</filter>
<clipPath id="clip0_447_24">
<rect width="360" height="640" fill="white"/>
</clipPath>
</defs>
</svg>
