<?xml version="1.0" encoding="UTF-8"?>
<svg xmlns="http://www.w3.org/2000/svg" xmlns:xlink="http://www.w3.org/1999/xlink" width="200px" height="155px" viewBox="0 0 199 155" version="1.1">
<g id="surface1">
<path style=" stroke:none;fill-rule:nonzero;fill:rgb(94.509804%,94.509804%,94.509804%);fill-opacity:1;" d="M 3.0625 142.757812 C 4.363281 147.285156 8.160156 150.453125 12.121094 153.144531 C 12.675781 153.523438 13.226562 153.890625 13.78125 154.246094 C 13.785156 154.25 13.789062 154.253906 13.792969 154.253906 C 13.820312 154.273438 13.847656 154.289062 13.871094 154.304688 C 13.984375 154.378906 14.097656 154.453125 14.210938 154.527344 L 14.148438 154.554688 C 14.148438 154.554688 14.089844 154.585938 14.15625 154.558594 C 14.175781 154.550781 14.195312 154.542969 14.214844 154.535156 C 16.519531 153.605469 18.859375 152.605469 20.625 150.859375 C 22.453125 149.046875 23.523438 146.207031 22.53125 143.824219 C 22.402344 143.515625 22.238281 143.21875 22.042969 142.941406 C 21.960938 142.828125 21.875 142.71875 21.785156 142.609375 C 20.671875 141.246094 18.914062 140.59375 17.183594 140.898438 C 15.453125 141.207031 14.027344 142.425781 13.445312 144.089844 C 13.15625 141.371094 15.390625 139.09375 17.539062 137.410156 C 19.691406 135.730469 22.136719 133.902344 22.550781 131.199219 C 22.785156 129.695312 22.261719 128.234375 21.3125 127.066406 C 21.285156 127.03125 21.253906 126.992188 21.222656 126.960938 C 20.066406 125.597656 18.441406 124.722656 16.671875 124.507812 C 13.371094 124.164062 10.167969 125.917969 7.773438 128.21875 C 3.914062 131.921875 1.582031 137.609375 3.0625 142.757812 Z M 3.0625 142.757812 "/>
<path style=" stroke:none;fill-rule:nonzero;fill:rgb(100%,100%,100%);fill-opacity:1;" d="M 9.261719 136.835938 C 8.628906 137.824219 8.144531 138.898438 7.820312 140.027344 C 7.546875 141.035156 7.421875 142.082031 7.457031 143.125 C 7.546875 145.277344 8.148438 147.375 9.210938 149.246094 C 10.015625 150.664062 10.992188 151.972656 12.121094 153.144531 C 12.675781 153.523438 13.226562 153.890625 13.78125 154.246094 C 13.785156 154.25 13.789062 154.253906 13.792969 154.253906 C 13.820312 154.273438 13.847656 154.289062 13.871094 154.304688 C 13.984375 154.378906 14.097656 154.453125 14.210938 154.527344 C 14.210938 154.527344 14.089844 154.585938 14.15625 154.558594 C 14.175781 154.550781 14.195312 154.542969 14.214844 154.535156 C 13.796875 151.09375 15.070312 147.660156 17.628906 145.328125 C 18.890625 144.195312 20.402344 143.378906 22.042969 142.941406 C 21.960938 142.828125 21.875 142.71875 21.785156 142.609375 C 21.152344 142.785156 20.535156 143.019531 19.945312 143.308594 C 17.828125 144.324219 16.097656 146 15.007812 148.085938 C 14.027344 149.976562 13.605469 152.109375 13.789062 154.234375 C 13.695312 154.148438 13.601562 154.058594 13.507812 153.972656 C 11.761719 152.335938 10.207031 150.457031 9.15625 148.292969 C 8.246094 146.457031 7.796875 144.421875 7.851562 142.375 C 7.9375 140.136719 8.824219 138.066406 10.109375 136.265625 C 11.519531 134.339844 13.183594 132.621094 15.054688 131.148438 C 16.941406 129.632812 19.007812 128.351562 21.207031 127.339844 C 21.308594 127.292969 21.355469 127.171875 21.3125 127.066406 C 21.296875 127.019531 21.265625 126.980469 21.222656 126.960938 C 21.179688 126.941406 21.128906 126.941406 21.085938 126.964844 C 20.816406 127.089844 20.546875 127.21875 20.277344 127.351562 C 18.054688 128.453125 15.972656 129.832031 14.085938 131.449219 C 12.261719 133.011719 10.542969 134.792969 9.261719 136.835938 Z M 9.261719 136.835938 "/>
<path style=" stroke:none;fill-rule:nonzero;fill:rgb(100%,71.764706%,71.764706%);fill-opacity:1;" d="M 61.339844 151.121094 L 64.792969 151.121094 L 66.4375 137.746094 L 61.339844 137.746094 Z M 61.339844 151.121094 "/>
<path style=" stroke:none;fill-rule:nonzero;fill:rgb(18.431373%,18.039216%,25.490196%);fill-opacity:1;" d="M 60.457031 149.988281 L 67.261719 149.988281 C 69.660156 149.988281 71.601562 151.9375 71.601562 154.339844 L 71.601562 154.484375 L 60.457031 154.484375 Z M 60.457031 149.988281 "/>
<path style=" stroke:none;fill-rule:nonzero;fill:rgb(100%,71.764706%,71.764706%);fill-opacity:1;" d="M 42.625 151.121094 L 46.082031 151.121094 L 47.726562 137.746094 L 42.625 137.746094 Z M 42.625 151.121094 "/>
<path style=" stroke:none;fill-rule:nonzero;fill:rgb(18.431373%,18.039216%,25.490196%);fill-opacity:1;" d="M 41.746094 149.988281 L 48.550781 149.988281 C 50.945312 149.988281 52.890625 151.9375 52.890625 154.339844 L 52.890625 154.484375 L 41.746094 154.484375 Z M 41.746094 149.988281 "/>
<path style=" stroke:none;fill-rule:nonzero;fill:rgb(18.431373%,18.039216%,25.490196%);fill-opacity:1;" d="M 41.21875 90.496094 L 41.21875 125.816406 L 42.109375 148.613281 L 49.460938 148.613281 L 51.910156 105.695312 L 56.8125 123.355469 L 59.929688 148.167969 L 68.839844 147.722656 L 62.828125 90.496094 Z M 41.21875 90.496094 "/>
<path style=" stroke:none;fill-rule:nonzero;fill:rgb(100%,72.156863%,72.156863%);fill-opacity:1;" d="M 55.109375 53.390625 C 55.109375 56.351562 52.71875 58.753906 49.765625 58.753906 C 46.8125 58.753906 44.417969 56.351562 44.417969 53.390625 C 44.417969 50.425781 46.8125 48.023438 49.765625 48.023438 C 52.71875 48.023438 55.109375 50.425781 55.109375 53.390625 Z M 55.109375 53.390625 "/>
<path style=" stroke:none;fill-rule:nonzero;fill:rgb(42.352941%,38.823529%,100%);fill-opacity:1;" d="M 47.542969 60.152344 L 46.121094 61.660156 L 44.78125 91.835938 L 60.597656 91.390625 L 56.8125 65.015625 L 53.472656 61.800781 L 51.773438 60.152344 Z M 47.542969 60.152344 "/>
<path style=" stroke:none;fill-rule:nonzero;fill:rgb(18.431373%,18.039216%,25.490196%);fill-opacity:1;" d="M 45.003906 63.449219 L 46.207031 61.492188 L 46.566406 65.683594 C 46.566406 65.683594 49.460938 75.074219 49.238281 83.34375 C 49.015625 91.613281 50.351562 111.0625 48.570312 111.285156 C 46.789062 111.507812 39.214844 111.957031 39.214844 110.390625 C 39.214844 108.824219 38.769531 67.25 38.769531 67.25 Z M 45.003906 63.449219 "/>
<path style=" stroke:none;fill-rule:nonzero;fill:rgb(18.431373%,18.039216%,25.490196%);fill-opacity:1;" d="M 53.113281 61.492188 L 56.144531 63.894531 L 62.828125 66.355469 C 62.828125 66.355469 62.828125 94.96875 64.164062 101.671875 C 65.5 108.378906 67.949219 109.050781 64.832031 109.273438 C 61.710938 109.496094 61.933594 108.378906 61.933594 108.378906 C 61.933594 108.378906 52.800781 79.765625 53.246094 72.613281 C 53.691406 65.460938 52.667969 61.492188 53.113281 61.492188 Z M 53.113281 61.492188 "/>
<path style=" stroke:none;fill-rule:nonzero;fill:rgb(18.431373%,18.039216%,25.490196%);fill-opacity:1;" d="M 44.707031 55.070312 C 44.707031 55.070312 45.160156 54.269531 45.054688 51.59375 C 44.949219 48.917969 49.007812 50.433594 52.398438 50.175781 C 55.789062 49.921875 55.070312 54.640625 55.070312 54.640625 C 55.070312 54.640625 55.316406 54.359375 55.839844 52.082031 C 56.363281 49.804688 55.175781 47.535156 55.175781 47.535156 C 54.824219 45.140625 52.9375 45.910156 52.9375 45.910156 C 53.84375 46.265625 53.671875 47.023438 53.671875 47.023438 C 52.902344 45.667969 51.015625 46.4375 51.015625 46.4375 C 48.496094 44.851562 45.945312 46.9375 45.945312 46.9375 C 42.902344 47.632812 44.6875 50.058594 44.6875 50.058594 C 41.628906 51.609375 44.707031 55.070312 44.707031 55.070312 Z M 44.707031 55.070312 "/>
<path style=" stroke:none;fill-rule:nonzero;fill:rgb(100%,71.764706%,71.764706%);fill-opacity:1;" d="M 39.222656 107.160156 C 39.679688 106.671875 39.902344 106.007812 39.824219 105.339844 C 39.746094 104.675781 39.378906 104.078125 38.820312 103.710938 L 39.785156 98.632812 L 36.851562 97.292969 L 35.589844 104.484375 C 35.023438 105.488281 35.296875 106.757812 36.222656 107.441406 C 37.148438 108.121094 38.4375 108 39.222656 107.160156 Z M 39.222656 107.160156 "/>
<path style=" stroke:none;fill-rule:nonzero;fill:rgb(18.431373%,18.039216%,25.490196%);fill-opacity:1;" d="M 39.882812 67.25 L 39.289062 66.929688 C 39.289062 66.929688 36.09375 68.144531 36.316406 69.039062 C 36.539062 69.929688 34.535156 101.226562 35.203125 102.34375 C 35.871094 103.460938 41.21875 102.566406 41.21875 102.566406 Z M 39.882812 67.25 "/>
<path style=" stroke:none;fill-rule:nonzero;fill:rgb(100%,71.764706%,71.764706%);fill-opacity:1;" d="M 65.3125 105.050781 C 64.789062 104.632812 64.480469 104.003906 64.464844 103.335938 C 64.449219 102.667969 64.730469 102.023438 65.234375 101.582031 L 63.578125 96.683594 L 66.300781 94.949219 L 68.539062 101.898438 C 69.238281 102.816406 69.144531 104.109375 68.320312 104.914062 C 67.496094 105.71875 66.203125 105.777344 65.3125 105.050781 Z M 65.3125 105.050781 "/>
<path style=" stroke:none;fill-rule:nonzero;fill:rgb(18.431373%,18.039216%,25.490196%);fill-opacity:1;" d="M 62.699219 100.78125 C 62.699219 100.78125 68.117188 100.925781 68.625 99.726562 C 69.132812 98.527344 62.832031 67.808594 62.929688 66.894531 C 63.027344 65.976562 59.695312 65.21875 59.695312 65.21875 L 59.15625 65.617188 Z M 62.699219 100.78125 "/>
<path style=" stroke:none;fill-rule:nonzero;fill:rgb(79.607843%,79.607843%,79.607843%);fill-opacity:1;" d="M 98.339844 155 L 0.257812 155 C 0.117188 155 0 154.882812 0 154.742188 C 0 154.597656 0.117188 154.484375 0.257812 154.484375 L 98.339844 154.484375 C 98.484375 154.484375 98.597656 154.597656 98.597656 154.742188 C 98.597656 154.882812 98.484375 155 98.339844 155 Z M 98.339844 155 "/>
<path style=" stroke:none;fill-rule:nonzero;fill:rgb(89.803922%,89.803922%,89.803922%);fill-opacity:1;" d="M 199.027344 79.566406 L 108.496094 79.566406 L 108.496094 23.007812 L 199.027344 23.007812 Z M 110.601562 77.453125 L 196.917969 77.453125 L 196.917969 25.125 L 110.601562 25.125 Z M 110.601562 77.453125 "/>
<path style=" stroke:none;fill-rule:nonzero;fill:rgb(100%,100%,100%);fill-opacity:1;" d="M 109.546875 24.066406 L 197.972656 24.066406 L 197.972656 78.507812 L 109.546875 78.507812 Z M 109.546875 24.066406 "/>
<path style=" stroke:none;fill-rule:nonzero;fill:rgb(90.196078%,90.196078%,90.196078%);fill-opacity:1;" d="M 197.972656 37.863281 L 197.972656 34.523438 L 185.707031 34.523438 L 185.707031 24.066406 L 182.375 24.066406 L 182.375 34.523438 L 160.535156 34.523438 L 160.535156 24.066406 L 157.207031 24.066406 L 157.207031 34.523438 L 123.523438 34.523438 L 123.523438 24.066406 L 120.191406 24.066406 L 120.191406 34.523438 L 109.546875 34.523438 L 109.546875 37.863281 L 120.191406 37.863281 L 120.191406 50.863281 L 109.546875 50.863281 L 109.546875 54.207031 L 120.191406 54.207031 L 120.191406 68.136719 L 109.546875 68.136719 L 109.546875 71.480469 L 138.144531 71.480469 L 138.144531 78.511719 L 141.472656 78.511719 L 141.472656 71.480469 L 157.207031 71.480469 L 157.207031 78.511719 L 160.535156 78.511719 L 160.535156 71.480469 L 197.972656 71.480469 L 197.972656 68.136719 L 160.535156 68.136719 L 160.535156 54.207031 L 197.972656 54.207031 L 197.972656 50.863281 L 185.707031 50.863281 L 185.707031 37.863281 Z M 157.207031 37.863281 L 157.207031 41.949219 L 123.523438 41.949219 L 123.523438 37.863281 Z M 123.523438 45.292969 L 157.207031 45.292969 L 157.207031 50.863281 L 123.523438 50.863281 Z M 123.523438 68.136719 L 123.523438 54.207031 L 138.144531 54.207031 L 138.144531 68.136719 Z M 157.207031 68.136719 L 141.472656 68.136719 L 141.472656 54.207031 L 157.207031 54.207031 Z M 182.375 50.863281 L 160.535156 50.863281 L 160.535156 37.863281 L 182.375 37.863281 Z M 182.375 50.863281 "/>
<path style=" stroke:none;fill-rule:nonzero;fill:rgb(42.352941%,38.823529%,100%);fill-opacity:1;" d="M 174.941406 16.027344 C 174.941406 24.882812 158.96875 44.601562 158.96875 44.601562 C 158.96875 44.601562 142.996094 24.882812 142.996094 16.027344 C 142.996094 7.175781 150.144531 0 158.96875 0 C 167.789062 0 174.941406 7.175781 174.941406 16.027344 Z M 174.941406 16.027344 "/>
<path style=" stroke:none;fill-rule:nonzero;fill:rgb(100%,100%,100%);fill-opacity:1;" d="M 166.269531 15.332031 C 166.269531 19.378906 163 22.660156 158.96875 22.660156 C 154.9375 22.660156 151.667969 19.378906 151.667969 15.332031 C 151.667969 11.285156 154.9375 8.003906 158.96875 8.003906 C 163.003906 8.003906 166.273438 11.285156 166.269531 15.332031 Z M 166.269531 15.332031 "/>
<path style=" stroke:none;fill-rule:nonzero;fill:rgb(42.352941%,38.823529%,100%);fill-opacity:1;" d="M 163.273438 51.851562 C 163.273438 54.238281 161.347656 56.171875 158.96875 56.171875 C 156.589844 56.171875 154.664062 54.238281 154.664062 51.851562 C 154.664062 49.464844 156.589844 47.527344 158.96875 47.527344 C 161.347656 47.527344 163.273438 49.464844 163.273438 51.851562 Z M 163.273438 51.851562 "/>
</g>
</svg>
